<svg xmlns="http://www.w3.org/2000/svg" width="33" height="32" fill="none"><rect width="32" height="32" x=".5" fill="#00DBAD" rx="16"/><path fill="#000" d="M22.9 16.595v4.413h-2.583v-4.144c0-1.022-.377-1.722-1.291-1.722-.7 0-1.13.485-1.292.915a2.007 2.007 0 0 0-.108.646v4.305h-2.583s.054-6.996 0-7.695h2.584v1.076c.322-.538.968-1.292 2.313-1.292 1.668 0 2.96 1.13 2.96 3.498ZM12.353 9.6c-.861 0-1.453.591-1.453 1.345 0 .753.538 1.345 1.4 1.345.914 0 1.452-.592 1.452-1.345.054-.807-.484-1.345-1.4-1.345Zm-1.291 11.408h2.582v-7.695h-2.582v7.695Z"/></svg>