<svg width="52" height="52" fill="none" xmlns="http://www.w3.org/2000/svg"><path d="M26 31.833c.33 0 .608-.112.832-.336.224-.224.335-.5.335-.83 0-.331-.112-.608-.336-.831A1.134 1.134 0 0 0 26 29.5c-.33 0-.608.112-.83.336-.224.224-.336.5-.337.83 0 .33.112.608.336.832.224.224.501.336.831.335Zm-1.167-4.667h2.334v-7h-2.334v7ZM26 37.666c-1.614 0-3.13-.306-4.55-.919a11.798 11.798 0 0 1-3.704-2.493 11.775 11.775 0 0 1-2.493-3.704 11.382 11.382 0 0 1-.92-4.55c0-1.614.307-3.13.92-4.55a11.8 11.8 0 0 1 2.493-3.704 11.775 11.775 0 0 1 3.704-2.494 11.381 11.381 0 0 1 4.55-.919c1.614 0 3.13.306 4.55.92a11.8 11.8 0 0 1 3.704 2.492 11.79 11.79 0 0 1 2.495 3.705 11.34 11.34 0 0 1 .918 4.55c0 1.614-.307 3.13-.92 4.55a11.799 11.799 0 0 1-2.493 3.704 11.79 11.79 0 0 1-3.704 2.494 11.34 11.34 0 0 1-4.55.918Z" fill="#FF8182"/></svg>