<svg xmlns="http://www.w3.org/2000/svg" width="120" height="41" fill="none"><path fill="#00DBAD" d="M4.872 18.61c-.167-.27-.366-.559-.596-.869a11.25 11.25 0 0 0-.738-.94c-.262-.318-.536-.62-.822-.906a8.386 8.386 0 0 0-.858-.774v3.49H0v-8.255h1.858v3.121c.484-.508.969-1.036 1.453-1.584.493-.556.95-1.068 1.37-1.537h2.204a58.972 58.972 0 0 1-1.704 1.93c-.564.62-1.16 1.243-1.786 1.87.659.548 1.294 1.2 1.905 1.954.62.754 1.211 1.588 1.775 2.5H4.872ZM8.142 10.357H10v8.254H8.142v-8.255ZM17.426 17.015v1.596H11.91v-8.255h1.858v6.659h3.657ZM24.137 17.015v1.596h-5.515v-8.255h1.858v6.659h3.657ZM72.64 10.261c1.23 0 2.176.219 2.835.655.659.43.989 1.136.989 2.12 0 .993-.334 1.712-1.001 2.156-.667.437-1.62.655-2.859.655h-.583v2.764h-1.858v-8.135c.405-.08.833-.135 1.286-.167.453-.032.85-.048 1.191-.048Zm.12 1.584c-.136 0-.27.004-.406.012-.127.008-.238.016-.333.024v2.382h.583c.644 0 1.128-.087 1.454-.262.325-.174.488-.5.488-.976 0-.23-.044-.421-.131-.572a.862.862 0 0 0-.358-.357 1.413 1.413 0 0 0-.56-.191 4.216 4.216 0 0 0-.738-.06ZM82.807 10.357h1.858v8.254h-1.858v-3.502h-3.121v3.502h-1.858v-8.255h1.858v3.157h3.12v-3.156ZM86.575 10.357h1.858v8.254h-1.858v-8.255ZM92.595 17.193c.262 0 .476-.02.643-.06a1.37 1.37 0 0 0 .417-.178.635.635 0 0 0 .214-.274.956.956 0 0 0 .06-.345c0-.27-.127-.492-.381-.667-.254-.183-.691-.377-1.31-.584-.27-.095-.54-.202-.81-.322a3.24 3.24 0 0 1-.727-.464 2.323 2.323 0 0 1-.524-.679c-.135-.27-.203-.595-.203-.977 0-.38.072-.722.215-1.024.143-.31.345-.572.607-.786.262-.214.58-.377.953-.488.373-.12.794-.18 1.263-.18.555 0 1.036.06 1.44.18.406.119.74.25 1.001.393l-.536 1.465a4.631 4.631 0 0 0-.774-.31 3.142 3.142 0 0 0-1.012-.143c-.445 0-.766.064-.965.19-.19.12-.286.306-.286.56 0 .151.036.278.107.382.072.103.171.198.298.286.135.079.286.154.453.226.174.063.365.13.572.202.428.16.802.318 1.12.477.317.15.579.33.785.536.215.206.373.448.477.726.103.278.155.616.155 1.013 0 .77-.27 1.37-.81 1.798-.54.421-1.354.631-2.442.631-.365 0-.695-.023-.989-.07a6.012 6.012 0 0 1-.786-.156 4.914 4.914 0 0 1-.583-.202 4.72 4.72 0 0 1-.405-.203l.524-1.477c.246.135.547.258.905.37.365.103.81.154 1.334.154ZM102.255 10.357h1.858v8.254h-1.858v-3.502h-3.12v3.502h-1.859v-8.255h1.858v3.157h3.121v-3.156ZM106.023 18.61v-8.253h5.575v1.56h-3.717v1.62h3.3v1.524h-3.3v1.99h3.99v1.56h-5.848ZM115.664 10.261c1.239 0 2.188.223 2.847.667.659.437.989 1.12.989 2.049 0 .58-.135 1.052-.405 1.417-.262.358-.643.64-1.144.846.167.206.342.445.524.715.183.262.362.54.536.833.183.286.358.588.524.906.167.31.322.615.465.917h-2.084a96.73 96.73 0 0 0-.465-.822 14.02 14.02 0 0 0-.476-.81 14.928 14.928 0 0 0-.477-.738 7.533 7.533 0 0 0-.476-.644h-.917v3.014h-1.858v-8.135c.404-.08.821-.135 1.25-.167.437-.032.826-.048 1.167-.048Zm.108 1.584a5.22 5.22 0 0 0-.37.012l-.297.024v2.24h.524c.698 0 1.199-.088 1.5-.263.302-.174.453-.472.453-.893 0-.405-.155-.69-.464-.858-.302-.174-.751-.262-1.346-.262Z"/><path fill="url(#a)" d="m55.009 30.212-8.131 8.101-8.135-8.101v-6.617l-1.43-1.416v8.328c.002.189.078.37.213.503l8.327 8.308 1.013 1.005 9.352-9.313a.724.724 0 0 0 .208-.503V22.18l-1.429 1.416.012 6.617Z"/><path fill="#00DBAD" d="m55.009 30.212-8.131 8.101-8.135-8.101v-6.617l-1.43-1.416v8.328c.002.189.078.37.213.503l8.327 8.308 1.013 1.005 9.352-9.313a.724.724 0 0 0 .208-.503V22.18l-1.429 1.416.012 6.617Z"/><path fill="#00DBAD" d="M64.727 22.785v-3.233l.03-.03-.03-.032V5.83a.723.723 0 0 0-.208-.506L59.577 0h-7.992a.707.707 0 0 0-.505.207l-4.202 4.185L42.675.207A.712.712 0 0 0 42.172 0h-7.996l-4.93 5.324a.71.71 0 0 0-.209.507v16.954a1.48 1.48 0 0 0-.724 1.662 1.487 1.487 0 0 0 2.873 0 1.472 1.472 0 0 0-.723-1.662v-2.708l3.666-3.648a1.489 1.489 0 0 0 1.691-.665 1.471 1.471 0 0 0-.227-1.797 1.485 1.485 0 0 0-2.428.501 1.47 1.47 0 0 0-.045.956l-2.673 2.632V6.122L34.16 2.01v7.077l-1.575 1.57v2.005l2.284-2.274 2.427 2.416V17.7l-.293.295-2.985 2.973a.701.701 0 0 0-.208.503v6.394l1.425 1.558V21.75l2.777-2.766 4.221 4.185v3.402a.707.707 0 0 0 .209.503l3.732 3.717v2.002a1.483 1.483 0 0 0-.726 1.666 1.48 1.48 0 0 0 1.44 1.113 1.49 1.49 0 0 0 1.44-1.113 1.475 1.475 0 0 0-.725-1.666v-1.99l3.72-3.71a.712.712 0 0 0 .212-.502v-3.422l4.203-4.185 2.773 2.766v7.672l1.43-1.558V21.47a.704.704 0 0 0-.213-.503L56.45 17.7v-4.887l2.5-2.505 2.369 2.355v-2.006l-1.741-1.734V2.018L63.29 6.13v11.933l-2.654-2.642a1.471 1.471 0 0 0-.668-1.684 1.488 1.488 0 0 0-1.804.226 1.474 1.474 0 0 0 .503 2.418c.306.12.644.136.96.044l3.663 3.648v2.712a1.48 1.48 0 0 0-.722 1.662 1.477 1.477 0 0 0 1.437 1.11 1.487 1.487 0 0 0 1.436-1.11 1.472 1.472 0 0 0-.722-1.662h.008ZM50.09 26.303l-3.004 3.003h-.42l-3.008-2.995v-3.142l3.22-3.203 3.212 3.203v3.134Zm8.058-17.204-2.931 2.923a.7.7 0 0 0-.212.502v5.187l-4.202 4.184-3.159-3.145 2.385-2.374v-3.26l1.88-1.815.985-.982V8.32l-4.071 4.055a.716.716 0 0 0-.208.502v3.49h-3.467v-3.555a.712.712 0 0 0-.212-.502l-4.09-4.067v1.999l.986.982 1.88 1.818v3.314l2.403 2.379-.242.238-2.924 2.907-4.202-4.185v-5.182a.691.691 0 0 0-.208-.503L35.9 9.383l-.292-.296V1.415h6.27l3.975 3.982 1.013 1.005 5.004-4.979h6.27l.008 7.676Z"/><defs><linearGradient id="a" x1="0" x2="120.073" y1="20.17" y2="20.17" gradientUnits="userSpaceOnUse"><stop stop-color="#02A6E0"/><stop offset="1" stop-color="#0CD35C"/></linearGradient></defs></svg>